<svg width="97" height="48" viewBox="0 0 97 48" fill="none" xmlns="http://www.w3.org/2000/svg">
<rect width="97" height="48" rx="16" fill="#85BDFB"/>
<path d="M24.9432 22.9744L22.5994 23.2301C22.5331 22.9934 22.4171 22.7708 22.2514 22.5625C22.0904 22.3542 21.8726 22.1861 21.598 22.0582C21.3234 21.9304 20.9872 21.8665 20.5895 21.8665C20.0545 21.8665 19.6046 21.9825 19.2401 22.2145C18.8802 22.4465 18.7027 22.7472 18.7074 23.1165C18.7027 23.4337 18.8187 23.6918 19.0554 23.8906C19.2969 24.0895 19.6946 24.2528 20.2486 24.3807L22.1094 24.7784C23.1416 25.0009 23.9086 25.3537 24.4105 25.8366C24.9171 26.3196 25.1728 26.9517 25.1776 27.733C25.1728 28.4195 24.9716 29.0256 24.5739 29.5511C24.1809 30.072 23.634 30.4792 22.9332 30.7727C22.2325 31.0663 21.4276 31.2131 20.5185 31.2131C19.1832 31.2131 18.1084 30.9337 17.294 30.375C16.4796 29.8116 15.9943 29.0279 15.8381 28.0241L18.3452 27.7827C18.4588 28.2751 18.7003 28.6468 19.0696 28.8977C19.4389 29.1487 19.9195 29.2741 20.5114 29.2741C21.1222 29.2741 21.6122 29.1487 21.9815 28.8977C22.3556 28.6468 22.5426 28.3366 22.5426 27.9673C22.5426 27.6548 22.4219 27.3968 22.1804 27.1932C21.9437 26.9896 21.5743 26.8333 21.0724 26.7244L19.2116 26.3338C18.1652 26.116 17.3911 25.7491 16.8892 25.233C16.3873 24.7121 16.1387 24.054 16.1435 23.2585C16.1387 22.5862 16.321 22.0038 16.6903 21.5114C17.0644 21.0142 17.5829 20.6307 18.2457 20.3608C18.9134 20.0862 19.6828 19.9489 20.554 19.9489C21.8324 19.9489 22.8385 20.2211 23.5724 20.7656C24.3111 21.3101 24.768 22.0464 24.9432 22.9744ZM34.2507 26.4119V20.0909H36.8217V31H34.3288V29.0611H34.2152C33.969 29.6719 33.5642 30.1714 33.0007 30.5597C32.442 30.9479 31.7531 31.142 30.9339 31.142C30.219 31.142 29.5869 30.9834 29.0376 30.6662C28.4931 30.3442 28.067 29.8778 27.7592 29.267C27.4515 28.6515 27.2976 27.9081 27.2976 27.0369V20.0909H29.8686V26.6392C29.8686 27.3305 30.058 27.8797 30.4368 28.2869C30.8156 28.6941 31.3127 28.8977 31.9283 28.8977C32.3071 28.8977 32.674 28.8054 33.0291 28.6207C33.3842 28.4361 33.6754 28.1615 33.9027 27.7969C34.1347 27.4276 34.2507 26.9659 34.2507 26.4119ZM39.5792 31V16.4545H42.1502V21.8949H42.2567C42.3893 21.6297 42.5763 21.348 42.8178 21.0497C43.0593 20.7467 43.386 20.4886 43.7979 20.2756C44.2099 20.0578 44.7354 19.9489 45.3746 19.9489C46.2174 19.9489 46.9774 20.1643 47.6545 20.5952C48.3363 21.0213 48.8761 21.6534 49.2738 22.4915C49.6763 23.3248 49.8775 24.3475 49.8775 25.5597C49.8775 26.7576 49.681 27.7756 49.288 28.6136C48.895 29.4517 48.36 30.0909 47.6829 30.5312C47.0058 30.9716 46.2388 31.1918 45.3817 31.1918C44.7567 31.1918 44.2383 31.0876 43.8263 30.8793C43.4144 30.6709 43.083 30.42 42.832 30.1264C42.5858 29.8281 42.3941 29.5464 42.2567 29.2812H42.1076V31H39.5792ZM42.1005 25.5455C42.1005 26.2509 42.1999 26.8688 42.3988 27.3991C42.6024 27.9295 42.8936 28.3437 43.2724 28.642C43.6559 28.9356 44.1199 29.0824 44.6644 29.0824C45.2326 29.0824 45.7085 28.9309 46.092 28.6278C46.4755 28.3201 46.7643 27.901 46.9585 27.3707C47.1573 26.8357 47.2567 26.2273 47.2567 25.5455C47.2567 24.8684 47.1597 24.267 46.9656 23.7415C46.7714 23.2159 46.4826 22.804 46.0991 22.5057C45.7156 22.2074 45.2373 22.0582 44.6644 22.0582C44.1152 22.0582 43.6488 22.2027 43.2653 22.4915C42.8817 22.7803 42.5906 23.1851 42.3917 23.706C42.1976 24.2268 42.1005 24.84 42.1005 25.5455ZM52.0632 31V20.0909H54.5206V21.9446H54.6484C54.8757 21.3196 55.2521 20.8319 55.7777 20.4815C56.3033 20.1264 56.9306 19.9489 57.6598 19.9489C58.3984 19.9489 59.0211 20.1288 59.5277 20.4886C60.0391 20.8437 60.3989 21.3291 60.6072 21.9446H60.7209C60.9624 21.3385 61.3696 20.8556 61.9425 20.4957C62.5201 20.1312 63.2043 19.9489 63.995 19.9489C64.9988 19.9489 65.8179 20.2661 66.4524 20.9006C67.0869 21.535 67.4041 22.4607 67.4041 23.6776V31H64.826V24.0753C64.826 23.3982 64.6461 22.9034 64.2862 22.5909C63.9264 22.2737 63.486 22.1151 62.9652 22.1151C62.3449 22.1151 61.8596 22.3092 61.5092 22.6974C61.1636 23.081 60.9908 23.5805 60.9908 24.196V31H58.4695V23.9688C58.4695 23.4053 58.299 22.9555 57.9581 22.6193C57.6219 22.2831 57.1816 22.1151 56.6371 22.1151C56.2678 22.1151 55.9316 22.2098 55.6286 22.3991C55.3255 22.5838 55.084 22.8466 54.9041 23.1875C54.7242 23.5237 54.6342 23.9167 54.6342 24.3665V31H52.0632ZM70.0124 31V20.0909H72.5835V31H70.0124ZM71.305 18.5426C70.8978 18.5426 70.5475 18.4077 70.2539 18.1378C69.9603 17.8632 69.8136 17.5341 69.8136 17.1506C69.8136 16.7623 69.9603 16.4332 70.2539 16.1634C70.5475 15.8887 70.8978 15.7514 71.305 15.7514C71.717 15.7514 72.0674 15.8887 72.3562 16.1634C72.6497 16.4332 72.7965 16.7623 72.7965 17.1506C72.7965 17.5341 72.6497 17.8632 72.3562 18.1378C72.0674 18.4077 71.717 18.5426 71.305 18.5426ZM80.6747 20.0909V22.0795H74.4034V20.0909H80.6747ZM75.9517 17.4773H78.5227V27.7188C78.5227 28.0644 78.5748 28.3295 78.679 28.5142C78.7879 28.6941 78.9299 28.8172 79.1051 28.8835C79.2803 28.9498 79.4744 28.983 79.6875 28.983C79.8485 28.983 79.9953 28.9711 80.1278 28.9474C80.2652 28.9238 80.3693 28.9025 80.4403 28.8835L80.8736 30.8935C80.7363 30.9408 80.5398 30.9929 80.2841 31.0497C80.0331 31.1065 79.7254 31.1397 79.3608 31.1491C78.7169 31.1681 78.1368 31.071 77.6207 30.858C77.1046 30.6402 76.6951 30.304 76.392 29.8494C76.0938 29.3949 75.947 28.8267 75.9517 28.1449V17.4773Z" fill="#1B65B6"/>
</svg>
