<svg width="19" height="19" viewBox="0 0 19 19" fill="none" xmlns="http://www.w3.org/2000/svg">
<path d="M17.5404 16.1569L10.8802 9.50037L17.5404 2.89284C17.8742 2.50627 17.8561 1.92614 17.4989 1.56139C17.1417 1.19663 16.5658 1.17021 16.1772 1.50075L9.49751 8.05926L2.93469 1.45173C2.55491 1.07163 1.94154 1.07163 1.56176 1.45173C1.37742 1.63581 1.27373 1.88638 1.27373 2.14778C1.27373 2.40918 1.37742 2.65975 1.56176 2.84382L8.11484 9.44155L1.45465 16.0393C1.27031 16.2234 1.16663 16.4739 1.16663 16.7353C1.16663 16.9967 1.27031 17.2473 1.45465 17.4314C1.63841 17.6149 1.88717 17.7172 2.14598 17.7157C2.40005 17.7172 2.64465 17.6187 2.82758 17.4412L9.49751 10.8238L16.1772 17.549C16.3609 17.7325 16.6097 17.8348 16.8685 17.8333C17.124 17.8322 17.3687 17.7301 17.5501 17.549C17.7332 17.3636 17.8351 17.1123 17.8333 16.8509C17.8314 16.5895 17.726 16.3397 17.5404 16.1569Z" fill="#E52130" stroke="#E52130"/>
</svg>
