<svg width="40" height="40" viewBox="0 0 40 40" fill="none" xmlns="http://www.w3.org/2000/svg">
<path fill-rule="evenodd" clip-rule="evenodd" d="M8 0H32C36.4183 0 40 3.58172 40 8V32C40 36.4183 36.4183 40 32 40H8C3.58172 40 0 36.4183 0 32V8C0 3.58172 3.58172 0 8 0ZM26.96 26.96C27.5449 26.3744 27.5449 25.4256 26.96 24.84L22.12 20L26.96 15.16C27.5107 14.569 27.4945 13.648 26.9232 13.0768C26.352 12.5055 25.431 12.4893 24.84 13.04L20 17.88L15.16 13.04C14.569 12.4893 13.648 12.5055 13.0768 13.0768C12.5055 13.648 12.4893 14.569 13.04 15.16L17.88 20L13.04 24.84C12.4551 25.4256 12.4551 26.3744 13.04 26.96C13.3257 27.2343 13.704 27.3914 14.1 27.4C14.4968 27.3954 14.8766 27.2378 15.16 26.96L20 22.12L24.84 26.96C25.1234 27.2378 25.5032 27.3954 25.9 27.4C26.296 27.3914 26.6743 27.2343 26.96 26.96Z" fill="#1B65B6"/>
</svg>
