<svg width="26" height="26" viewBox="0 0 26 26" fill="none" xmlns="http://www.w3.org/2000/svg">
<path d="M21.0404 19.6569L14.3802 13.0004L21.0404 6.39286C21.3742 6.00628 21.3561 5.42616 20.9989 5.0614C20.6417 4.69665 20.0659 4.67023 19.6772 5.00077L12.9975 11.5593L6.43472 4.95175C6.05494 4.57165 5.44157 4.57165 5.06179 4.95175C4.87745 5.13583 4.77376 5.3864 4.77376 5.64779C4.77376 5.90919 4.87745 6.15976 5.06179 6.34384L11.6149 12.9416L4.95468 19.5393C4.77034 19.7234 4.66666 19.9739 4.66666 20.2353C4.66666 20.4967 4.77034 20.7473 4.95468 20.9314C5.13844 21.1149 5.3872 21.2172 5.64601 21.2157C5.90008 21.2172 6.14468 21.1187 6.32761 20.9412L12.9975 14.3239L19.6772 21.049C19.861 21.2325 20.1097 21.3348 20.3685 21.3333C20.624 21.3322 20.8688 21.2301 21.0501 21.049C21.2332 20.8636 21.3351 20.6123 21.3333 20.3509C21.3315 20.0895 21.226 19.8397 21.0404 19.6569Z" fill="#999999" stroke="#999999"/>
</svg>
