<svg width="30" height="30" viewBox="0 0 30 30" fill="none" xmlns="http://www.w3.org/2000/svg">
<path d="M25.4348 13.0435H18.2609C17.5405 13.0435 16.9565 12.4595 16.9565 11.7391V4.56522C16.9565 3.48466 16.0806 2.6087 15 2.6087C13.9194 2.6087 13.0435 3.48466 13.0435 4.56522V11.7391C13.0435 12.4595 12.4595 13.0435 11.7391 13.0435H4.56523C3.48467 13.0435 2.6087 13.9194 2.6087 15C2.6087 16.0806 3.48467 16.9565 4.56523 16.9565H11.7391C12.4595 16.9565 13.0435 17.5405 13.0435 18.2609V25.4348C13.0435 26.5153 13.9194 27.3913 15 27.3913C16.0806 27.3913 16.9565 26.5153 16.9565 25.4348V18.2609C16.9565 17.5405 17.5405 16.9565 18.2609 16.9565H25.4348C26.5153 16.9565 27.3913 16.0806 27.3913 15C27.3913 13.9194 26.5153 13.0435 25.4348 13.0435Z" fill="#1B1F26" fill-opacity="0.72"/>
</svg>
